<?xml version="1.0" encoding="UTF-8"?>
<svg version="1.1" xmlns="http://www.w3.org/2000/svg" width="512" height="512">
<path d="M0 0 C9.65604124 8.85621855 15.5657086 20.57706181 16.5546875 33.671875 C17.09243747 49.65959528 11.51089907 60.87879583 0.85437012 72.29107666 C-4.7157221 78.14586248 -10.4871577 83.80820836 -16.21875 89.50390625 C-17.62328142 90.90341048 -19.02758006 92.30314838 -20.43164062 93.703125 C-23.83716878 97.0977491 -27.24582182 100.48920531 -30.65625 103.87890625 C-29.14248919 107.4465491 -27.05111871 109.71596912 -24.3046875 112.42578125 C-23.45390625 113.27011719 -22.603125 114.11445313 -21.7265625 114.984375 C-20.83710938 115.85707031 -19.94765625 116.72976563 -19.03125 117.62890625 C-18.1340625 118.51707031 -17.236875 119.40523437 -16.3125 120.3203125 C-14.09817996 122.51107594 -11.87932565 124.69703388 -9.65625 126.87890625 C-6.5676961 125.50705076 -4.4985448 123.95135713 -2.14794922 121.53417969 C-1.47980194 120.85297058 -0.81165466 120.17176147 -0.1232605 119.46990967 C0.59030609 118.73347229 1.30387268 117.99703491 2.0390625 117.23828125 C3.57523229 115.67679942 5.11170032 114.11561094 6.6484375 112.5546875 C9.05487635 110.09882809 11.4580232 107.6399337 13.85546875 105.17529297 C16.1784337 102.79137419 18.51412612 100.42050102 20.8515625 98.05078125 C21.5529837 97.3224408 22.25440491 96.59410034 22.9770813 95.84368896 C32.94088484 85.7818875 44.71220076 80.15376659 58.90625 79.62890625 C72.24777959 79.82922952 83.79381633 84.37715722 93.59375 93.37890625 C102.46311822 102.75670959 107.16700059 114.50904239 107.59375 127.37890625 C107.11933367 144.22068581 98.82941125 156.93340777 87.1015625 168.4140625 C86.33319061 169.17818954 85.56481873 169.94231659 84.77316284 170.729599 C82.34538068 173.14074447 79.90732156 175.54117852 77.46875 177.94140625 C75.80920171 179.58588836 74.15034071 181.23106436 72.4921875 182.87695312 C68.45061481 186.88565597 64.4005776 190.88564525 60.34375 194.87890625 C61.74134905 198.42409509 61.74134905 198.42409509 63.34375 201.87890625 C63.58203125 204.015625 63.58203125 204.015625 63.65625 206.56640625 C63.69363281 207.39527344 63.73101562 208.22414063 63.76953125 209.078125 C62.59330271 216.81533476 56.58561268 222.07837062 51.28125 227.33984375 C50.49411621 228.12984772 49.70698242 228.91985168 48.89599609 229.73379517 C47.23203889 231.3997875 45.56431251 233.06202278 43.89306641 234.72070312 C41.36924354 237.22857384 38.86168791 239.75189529 36.35546875 242.27734375 C28.13226638 250.51100964 20.02704323 258.37813144 10.34375 264.87890625 C9.50489258 265.44875244 8.66603516 266.01859863 7.80175781 266.60571289 C-12.5522146 280.07075236 -39.46599035 283.14877989 -63.08154297 278.79736328 C-74.10878574 276.38630132 -85.03275027 272.14611271 -94.40625 265.81640625 C-95.47875 265.17703125 -96.55125 264.53765625 -97.65625 263.87890625 C-101.77836142 265.06208211 -104.54062409 268.51110696 -107.46289062 271.49023438 C-108.03251022 272.06277451 -108.60212982 272.63531464 -109.18901062 273.22520447 C-110.42272791 274.46652109 -111.65412956 275.71014254 -112.88346863 276.95579529 C-114.82925692 278.9271332 -116.78124502 280.89213571 -118.73498535 282.85559082 C-122.88102171 287.0244753 -127.01918515 291.20112108 -131.15625 295.37890625 C-135.95046689 300.22031168 -140.74784982 305.05848663 -145.55375671 309.88829041 C-147.47669485 311.82419397 -149.39350967 313.76602413 -151.31018066 315.70812988 C-152.48969323 316.89490789 -153.66948772 318.08140579 -154.84960938 319.26757812 C-155.38063766 319.80893906 -155.91166595 320.35029999 -156.45878601 320.9080658 C-160.86858016 325.31911307 -163.79088173 327.16650613 -170.03125 327.25390625 C-170.94648438 327.28226563 -171.86171875 327.310625 -172.8046875 327.33984375 C-178.54446181 326.41204462 -182.62647702 322.15967688 -186.62011719 318.17382812 C-187.55418396 317.24606567 -188.48825073 316.31830322 -189.45062256 315.36242676 C-190.45171229 314.35775786 -191.45254026 313.35282808 -192.453125 312.34765625 C-193.49321826 311.30891198 -194.53360812 310.2704646 -195.57427979 309.2322998 C-197.74598086 307.06353634 -199.91405091 304.89122454 -202.07958984 302.71630859 C-204.85243894 299.93203727 -207.63420951 297.15688005 -210.41874313 294.38430023 C-212.56535174 292.24492278 -214.70716908 290.10079966 -216.84757233 287.95521545 C-217.87154707 286.92990917 -218.89700236 285.90607924 -219.92397308 284.8837738 C-221.35747994 283.45535573 -222.78388291 282.01981917 -224.20996094 280.58398438 C-225.42857819 279.36298035 -225.42857819 279.36298035 -226.67181396 278.11730957 C-230.02123362 274.3392326 -230.96093047 271.52472037 -231.03125 266.50390625 C-231.05960938 265.58867187 -231.08796875 264.6734375 -231.1171875 263.73046875 C-230.10637869 257.47715998 -225.13086803 253.06833035 -220.78613281 248.78173828 C-220.21008804 248.20540146 -219.63404327 247.62906464 -219.0405426 247.03526306 C-217.15152592 245.14763022 -215.25554377 243.26716468 -213.359375 241.38671875 C-212.04186041 240.07293765 -210.72478917 238.75871179 -209.40814209 237.44406128 C-205.95364901 233.99717816 -202.49319057 230.55634553 -199.03143311 227.11676025 C-195.49518032 223.6010228 -191.96463299 220.07956604 -188.43359375 216.55859375 C-181.51336823 209.6597716 -174.58682388 202.76733126 -167.65625 195.87890625 C-169.0450993 192.30937673 -170.63543884 188.95104335 -172.42358398 185.56201172 C-184.11935486 163.23049311 -188.34315046 136.22719484 -180.9765625 111.69140625 C-176.02950023 96.94900869 -168.98043809 84.39322487 -158.31640625 72.9609375 C-157.80351044 72.40866486 -157.29061462 71.85639221 -156.76217651 71.28738403 C-150.71883508 64.81992084 -144.51246897 58.51350375 -138.26318359 52.24560547 C-136.25549918 50.22802855 -134.25873213 48.20000814 -132.26171875 46.171875 C-130.96940543 44.87304545 -129.67646014 43.57484431 -128.3828125 42.27734375 C-127.79521149 41.67739594 -127.20761047 41.07744812 -126.60220337 40.45932007 C-122.62103408 36.49943167 -118.79243032 33.35994443 -113.05859375 32.48046875 C-107.88297932 32.5296822 -105.07700021 33.01842082 -100.65625 35.87890625 C-97.49947426 34.71583856 -95.46917608 32.92115653 -93.14794922 30.53417969 C-92.47980194 29.85297058 -91.81165466 29.17176147 -91.1232605 28.46990967 C-90.40969391 27.73347229 -89.69612732 26.99703491 -88.9609375 26.23828125 C-87.42476771 24.67679942 -85.88829968 23.11561094 -84.3515625 21.5546875 C-81.94512365 19.09882809 -79.5419768 16.6399337 -77.14453125 14.17529297 C-74.8215663 11.79137419 -72.48587388 9.42050102 -70.1484375 7.05078125 C-69.4470163 6.3224408 -68.74559509 5.59410034 -68.0229187 4.84368896 C-49.44722472 -13.91470427 -21.07806611 -16.83145573 0 0 Z M-51.09375 31.92578125 C-52.24206299 33.08258392 -52.24206299 33.08258392 -53.41357422 34.26275635 C-55.83741832 36.70884835 -58.24691822 39.16852726 -60.65625 41.62890625 C-62.30505894 43.29779496 -63.95478949 44.96577368 -65.60546875 46.6328125 C-69.63311858 50.70437591 -73.64910809 54.78716315 -77.65625 58.87890625 C-74.34025925 62.80978761 -71.00485835 66.65605643 -67.3515625 70.28125 C-66.60390625 71.02568359 -65.85625 71.77011719 -65.0859375 72.53710938 C-64.32539063 73.28927734 -63.56484375 74.04144531 -62.78125 74.81640625 C-61.9975 75.59564453 -61.21375 76.37488281 -60.40625 77.17773438 C-58.49186419 79.0804471 -56.57516966 80.98076796 -54.65625 82.87890625 C-49.74970168 78.751804 -45.07584986 74.48162517 -40.515625 69.9765625 C-39.86676331 69.33577255 -39.21790161 68.6949826 -38.54937744 68.03477478 C-37.18999281 66.68911997 -35.83207938 65.34197744 -34.47558594 63.9934082 C-33.09330568 62.62270674 -31.70655493 61.25649922 -30.31542969 59.89477539 C-28.28890892 57.91097097 -26.2760113 55.9142007 -24.265625 53.9140625 C-23.64685486 53.31280045 -23.02808472 52.71153839 -22.39056396 52.09205627 C-18.13380017 47.81373934 -14.98975193 43.66870091 -14.44140625 37.4375 C-15.29334656 30.92195649 -17.25351951 26.94637202 -22.34375 22.56640625 C-34.47048236 16.38863693 -42.6177623 23.20819491 -51.09375 31.92578125 Z M-117.6953125 76.546875 C-118.29499847 77.1375325 -118.89468445 77.72819 -119.51254272 78.33674622 C-120.7879652 79.59761908 -122.06055745 80.8613601 -123.33056641 82.12768555 C-125.24053619 84.02594212 -127.16828002 85.90470445 -129.09765625 87.78320312 C-143.90655826 102.39339505 -153.0414329 117.74756642 -153.21875 139.00390625 C-152.88309832 163.85912575 -139.90791348 179.93716954 -122.953125 196.91796875 C-121.94324533 197.93430455 -120.93350314 198.95077697 -119.92388916 199.96737671 C-117.82304226 202.08008324 -115.71822256 204.18873569 -113.61083984 206.29492188 C-110.94401298 208.96154556 -108.29123077 211.64168113 -105.64176559 214.32554054 C-103.56546163 216.42434105 -101.47986628 218.51372619 -99.39176178 220.60078049 C-98.41116825 221.58369397 -97.43371835 222.56975649 -96.45986176 223.55934525 C-82.70977641 237.51075236 -66.37147919 248.98280257 -46.09594727 249.20874023 C-24.73099125 249.07105195 -9.73687276 243.07583201 5.34375 227.87890625 C7.07483107 226.15946154 8.80666642 224.44077604 10.5390625 222.72265625 C15.49479255 217.79530703 20.42597125 212.84411165 25.34375 207.87890625 C23.74846777 203.94122004 21.03197031 201.28724191 18.06750488 198.34869385 C17.5240947 197.80216368 16.98068452 197.25563352 16.42080736 196.69254184 C14.5984231 194.8621792 12.76897202 193.03904956 10.93945312 191.21582031 C9.63165941 189.90531673 8.32429159 188.59438801 7.01731873 187.2830658 C3.4663105 183.72293259 -0.09100385 180.16916348 -3.64974403 176.61676121 C-7.36873067 172.90283182 -11.0828423 169.18403245 -14.79772949 165.46600342 C-21.03522294 159.22487043 -27.27692414 152.98796886 -33.52099609 146.75341797 C-40.74908884 139.53621925 -47.96993536 132.31183071 -55.187078 125.08368325 C-61.37705419 118.8846452 -67.57090181 112.6894956 -73.76803064 106.49760795 C-77.47238713 102.796376 -81.17536359 99.0937906 -84.87486267 95.38770294 C-88.35048842 91.90632001 -91.83093152 88.42982755 -95.31522942 84.95712471 C-96.59650926 83.67849979 -97.87607095 82.3981506 -99.15382576 81.11600304 C-100.89132236 79.37308253 -102.63479396 77.6363749 -104.38000488 75.90118408 C-105.14546418 75.12903262 -105.14546418 75.12903262 -105.92638731 74.34128213 C-111.34918476 68.97917164 -112.93634955 71.83213878 -117.6953125 76.546875 Z M39.90625 122.92578125 C38.75793701 124.08258392 38.75793701 124.08258392 37.58642578 125.26275635 C35.16258168 127.70884835 32.75308178 130.16852726 30.34375 132.62890625 C28.69494106 134.29779496 27.04521051 135.96577368 25.39453125 137.6328125 C21.36688142 141.70437591 17.35089191 145.78716315 13.34375 149.87890625 C16.65974075 153.80978761 19.99514165 157.65605643 23.6484375 161.28125 C24.39609375 162.02568359 25.14375 162.77011719 25.9140625 163.53710938 C26.67460937 164.28927734 27.43515625 165.04144531 28.21875 165.81640625 C29.0025 166.59564453 29.78625 167.37488281 30.59375 168.17773438 C32.50813581 170.0804471 34.42483034 171.98076796 36.34375 173.87890625 C41.19842747 169.82653549 45.79075656 165.591411 50.265625 161.125 C50.89229065 160.50166275 51.5189563 159.8783255 52.16461182 159.23609924 C53.47676638 157.92896939 54.78760425 156.62051653 56.09716797 155.31079102 C58.09714148 153.3130185 60.10500087 151.32340191 62.11328125 149.33398438 C63.39371814 148.05647949 64.67368272 146.778501 65.953125 145.5 C66.55002136 144.91028915 67.14691772 144.32057831 67.76190186 143.71299744 C72.46141119 138.98756639 75.78851975 134.91793888 76.40234375 127.99609375 C76.2791978 123.54642 74.94219016 119.68802907 71.98046875 116.3359375 C68.14252835 112.9541864 64.55566266 111.17382794 59.53125 110.50390625 C51.00467927 111.50703222 45.61649066 117.0527765 39.90625 122.92578125 Z M-147.59877014 219.70117188 C-148.44926437 220.55388672 -149.29975861 221.40660156 -150.17602539 222.28515625 C-150.6443428 222.75332764 -151.11266022 223.22149902 -151.59516907 223.70385742 C-153.15046188 225.25984976 -154.70217782 226.81935992 -156.25390625 228.37890625 C-157.32843132 229.45529536 -158.40317663 230.53146464 -159.47813416 231.60742188 C-162.31292991 234.44604392 -165.14471049 237.28765572 -167.97589111 240.12988281 C-170.86298523 243.02718868 -173.75289658 245.92168141 -176.64257812 248.81640625 C-182.31657631 254.50114371 -187.98739492 260.18904006 -193.65625 265.87890625 C-190.34025925 269.80978761 -187.00485835 273.65605643 -183.3515625 277.28125 C-182.60390625 278.02568359 -181.85625 278.77011719 -181.0859375 279.53710938 C-180.32539063 280.28927734 -179.56484375 281.04144531 -178.78125 281.81640625 C-177.605625 282.98526367 -177.605625 282.98526367 -176.40625 284.17773438 C-174.49186419 286.0804471 -172.57516966 287.98076796 -170.65625 289.87890625 C-164.69506703 284.93893364 -159.24138698 279.59360763 -153.78515625 274.10546875 C-152.862827 273.18172455 -151.94049774 272.25798035 -150.99021912 271.3062439 C-148.55991186 268.87215194 -146.13262504 266.43507028 -143.70599365 263.99731445 C-141.22055636 261.50157515 -138.73222068 259.00872917 -136.24414062 256.515625 C-131.37869904 251.63951765 -126.51644802 246.76023994 -121.65625 241.87890625 C-124.96755821 237.95774947 -128.29725625 234.111156 -131.92578125 230.4765625 C-132.66892578 229.73212891 -133.41207031 228.98769531 -134.17773438 228.22070312 C-134.93376953 227.46853516 -135.68980469 226.71636719 -136.46875 225.94140625 C-137.24412109 225.16216797 -138.01949219 224.38292969 -138.81835938 223.58007812 C-139.55505859 222.84466797 -140.29175781 222.10925781 -141.05078125 221.3515625 C-141.71956299 220.68390869 -142.38834473 220.01625488 -143.07739258 219.32836914 C-145.40029412 217.19583992 -145.2221432 217.47167345 -147.59877014 219.70117188 Z " fill="#000000" transform="translate(230.65625,185.12109375)"/>
<path d="M0 0 C1.37285156 -0.04253906 1.37285156 -0.04253906 2.7734375 -0.0859375 C8.51321181 0.84186163 12.59522702 5.09422937 16.58886719 9.08007812 C17.52293396 10.00784058 18.45700073 10.93560303 19.41937256 11.89147949 C20.42046229 12.89614839 21.42129026 13.90107817 22.421875 14.90625 C23.46196826 15.94499427 24.50235812 16.98344165 25.54302979 18.02160645 C27.71473086 20.19036991 29.88280091 22.36268171 32.04833984 24.53759766 C34.82118894 27.32186898 37.60295951 30.0970262 40.38749313 32.86960602 C42.53410174 35.00898347 44.67591908 37.15310659 46.81632233 39.2986908 C47.84029707 40.32399708 48.86575236 41.34782701 49.89272308 42.37013245 C51.32622994 43.79855052 52.75263291 45.23408708 54.17871094 46.66992188 C55.39732819 47.8909259 55.39732819 47.8909259 56.64056396 49.13659668 C59.98998362 52.91467365 60.92968047 55.72918588 61 60.75 C61.02835938 61.66523437 61.05671875 62.58046875 61.0859375 63.5234375 C60.07512869 69.77674627 55.09961803 74.1855759 50.75488281 78.47216797 C50.17883804 79.04850479 49.60279327 79.62484161 49.0092926 80.21864319 C47.12027592 82.10627603 45.22429377 83.98674157 43.328125 85.8671875 C42.01061041 87.1809686 40.69353917 88.49519446 39.37689209 89.80984497 C35.92239901 93.25672809 32.46194057 96.69756072 29.00018311 100.137146 C25.46393032 103.65288345 21.93338299 107.17434021 18.40234375 110.6953125 C11.48211823 117.59413465 4.55557388 124.48657499 -2.375 131.375 C-0.9861507 134.94452952 0.60418884 138.3028629 2.39233398 141.69189453 C14.52887792 164.86501065 18.06572148 192.1221243 10.27099609 217.42871094 C2.74603594 240.10028401 -12.8502059 256.21400982 -29.40161133 272.71728516 C-31.71001065 275.0224794 -34.00461899 277.34084849 -36.29882812 279.66015625 C-37.77783625 281.14143379 -39.25762556 282.62193184 -40.73828125 284.1015625 C-41.41651443 284.78900543 -42.09474762 285.47644836 -42.79353333 286.1847229 C-46.92067086 290.27198891 -50.78539435 293.76476704 -56.71875 294.7734375 C-57.4303125 294.76570313 -58.141875 294.75796875 -58.875 294.75 C-59.5865625 294.75773437 -60.298125 294.76546875 -61.03125 294.7734375 C-67.59898502 293.65692255 -71.74973637 289.4302817 -76.23321533 284.8977356 C-76.89846623 284.23716467 -77.56371713 283.57659374 -78.24912715 282.89600551 C-80.47176978 280.68530896 -82.68355858 278.46406791 -84.89550781 276.24267578 C-86.4885654 274.65368401 -88.08226034 273.065331 -89.67654419 271.47756958 C-94.00141293 267.16637784 -98.31673766 262.84574961 -102.63001347 258.52296305 C-107.14360916 254.00177417 -111.6645174 249.48790706 -116.18426514 244.97286987 C-124.25818483 236.90475777 -132.32450903 228.82910976 -140.387889 220.750468 C-147.6980563 213.42689334 -155.01605989 206.11122635 -162.33984375 198.80126953 C-170.84823935 190.30892999 -179.351567 181.8115764 -187.84750628 173.30677021 C-192.34363518 168.80596104 -196.84177404 164.307211 -201.34519196 159.813694 C-205.57743149 155.59010997 -209.80228466 151.35927464 -214.02151108 147.12269211 C-215.57256279 145.56766828 -217.12618305 144.01520166 -218.68252182 142.46546936 C-220.80359297 140.35257453 -222.91524041 138.230691 -225.02471924 136.10623169 C-225.64513446 135.49250863 -226.26554968 134.87878557 -226.90476537 134.24646485 C-231.15049578 129.94190367 -233.63747059 126.2341295 -233.75 120 C-233.77835938 119.29101562 -233.80671875 118.58203125 -233.8359375 117.8515625 C-232.43434161 110.32095407 -226.55518698 105.11446628 -221.34765625 99.94921875 C-220.56289413 99.16158646 -219.77813202 98.37395416 -218.96958923 97.56245422 C-217.3098283 95.90065794 -215.64629733 94.24261956 -213.97924805 92.58813477 C-211.4664215 90.09123815 -208.96983704 87.57892229 -206.47460938 85.06445312 C-184.01660276 62.57357923 -160.86733803 47.25338307 -128.125 47.0625 C-109.25669402 47.05069911 -91.50292583 50.7155058 -75.625 61.4375 C-74.5525 62.076875 -73.48 62.71625 -72.375 63.375 C-68.25288858 62.19182414 -65.49062591 58.74279929 -62.56835938 55.76367188 C-61.99873978 55.19113174 -61.42912018 54.61859161 -60.84223938 54.02870178 C-59.60852209 52.78738516 -58.37712044 51.54376371 -57.14778137 50.29811096 C-55.20199308 48.32677305 -53.25000498 46.36177054 -51.29626465 44.39831543 C-47.15022829 40.22943095 -43.01206485 36.05278517 -38.875 31.875 C-34.08078311 27.03359457 -29.28340018 22.19541962 -24.47749329 17.36561584 C-22.55455515 15.42971228 -20.63774033 13.48788212 -18.72106934 11.54577637 C-17.54155677 10.35899836 -16.36176228 9.17250046 -15.18164062 7.98632812 C-14.65061234 7.44496719 -14.11958405 6.90360626 -13.57246399 6.34584045 C-9.16266984 1.93479318 -6.24036827 0.08740012 0 0 Z M-2.31752014 39.19726562 C-3.16801437 40.04998047 -4.01850861 40.90269531 -4.89477539 41.78125 C-5.3630928 42.24942139 -5.83141022 42.71759277 -6.31391907 43.19995117 C-7.86921188 44.75594351 -9.42092782 46.31545367 -10.97265625 47.875 C-12.04718132 48.95138911 -13.12192663 50.02755839 -14.19688416 51.10351562 C-17.03167991 53.94213767 -19.86346049 56.78374947 -22.69464111 59.62597656 C-25.58173523 62.52328243 -28.47164658 65.41777516 -31.36132812 68.3125 C-37.03532631 73.99723746 -42.70614492 79.68513381 -48.375 85.375 C-45.05900925 89.30588136 -41.72360835 93.15215018 -38.0703125 96.77734375 C-37.32265625 97.52177734 -36.575 98.26621094 -35.8046875 99.03320312 C-35.04414063 99.78537109 -34.28359375 100.53753906 -33.5 101.3125 C-32.324375 102.48135742 -32.324375 102.48135742 -31.125 103.67382812 C-29.21061419 105.57654085 -27.29391966 107.47686171 -25.375 109.375 C-19.41381703 104.43502739 -13.96013698 99.08970138 -8.50390625 93.6015625 C-7.581577 92.6778183 -6.65924774 91.7540741 -5.70896912 90.80233765 C-3.27866186 88.36824569 -0.85137504 85.93116403 1.57525635 83.4934082 C4.06069364 80.9976689 6.54902932 78.50482292 9.03710938 76.01171875 C13.90255096 71.1356114 18.76480198 66.25633369 23.625 61.375 C20.31369179 57.45384322 16.98399375 53.60724975 13.35546875 49.97265625 C12.61232422 49.22822266 11.86917969 48.48378906 11.10351562 47.71679688 C10.34748047 46.96462891 9.59144531 46.21246094 8.8125 45.4375 C8.03712891 44.65826172 7.26175781 43.87902344 6.46289062 43.07617188 C5.72619141 42.34076172 4.98949219 41.60535156 4.23046875 40.84765625 C3.56168701 40.18000244 2.89290527 39.51234863 2.20385742 38.82446289 C-0.11904412 36.69193367 0.0591068 36.9677672 -2.31752014 39.19726562 Z M-175.375 99.375 C-177.10608107 101.09444471 -178.83791642 102.81313021 -180.5703125 104.53125 C-185.52604255 109.45859922 -190.45722125 114.4097946 -195.375 119.375 C-193.77976175 123.3175255 -191.05631155 125.96802432 -188.08529663 128.9052124 C-187.26806466 129.72500765 -187.26806466 129.72500765 -186.43432295 130.56136441 C-184.60725694 132.39172504 -182.77313375 134.21484509 -180.93896484 136.03808594 C-179.62791214 137.34857453 -178.31729962 138.65950362 -177.00709534 139.97084045 C-173.44774259 143.53076769 -169.88225126 147.08448913 -166.31564283 150.63714504 C-162.58980448 154.35049204 -158.86961844 158.06949283 -155.14883423 161.78790283 C-148.10158107 168.82893653 -141.04924457 175.8648559 -133.99507678 182.89896131 C-125.96464264 190.90705094 -117.93987787 198.92081142 -109.91558909 206.93505812 C-93.40836907 223.4213656 -76.89402654 239.90052308 -60.375 256.375 C-56.42956311 254.54381024 -53.64329673 251.98295963 -50.578125 248.94921875 C-50.02566101 248.40578323 -49.47319702 247.86234772 -48.9039917 247.30244446 C-47.73470817 246.14765388 -46.5682038 244.99004342 -45.40429688 243.82983398 C-43.65687867 242.09416434 -41.89173016 240.37808565 -40.125 238.66210938 C-25.64837336 224.39688866 -16.98506944 208.9372023 -16.8125 188.25 C-17.14815168 163.3947805 -30.12333652 147.31673671 -47.078125 130.3359375 C-48.08800467 129.3196017 -49.09774686 128.30312928 -50.10736084 127.28652954 C-52.20820774 125.17382301 -54.31302744 123.06517056 -56.42041016 120.95898438 C-59.08723702 118.29236069 -61.74001923 115.61222512 -64.38948441 112.92836571 C-66.46578837 110.8295652 -68.55138372 108.74018006 -70.63948822 106.65312576 C-71.62008175 105.67021228 -72.59753165 104.68414976 -73.57138824 103.694561 C-87.32147359 89.74315389 -103.65977081 78.27110368 -123.93530273 78.04516602 C-145.30025875 78.1828543 -160.29437724 84.17807424 -175.375 99.375 Z " fill="#000000" transform="translate(451.375,-0.375)"/>
<path d="M0 0 C1.37913694 1.13703992 2.73181115 2.30662426 4.0625 3.5 C4.84238281 4.19867188 5.62226563 4.89734375 6.42578125 5.6171875 C11.57071572 10.48424498 16.73017299 15.37516774 17.2109375 22.7890625 C16.88352967 27.94142786 15.59052398 31.6101274 12.0625 35.5 C8.15098832 38.4203594 4.47278586 39.85397706 -0.4375 39.625 C-5.70418288 38.70513415 -9.05889705 36.03811491 -12.9375 32.5 C-13.71609375 31.80132812 -14.4946875 31.10265625 -15.296875 30.3828125 C-20.44592092 25.51982468 -25.60518944 20.62457859 -26.0859375 13.2109375 C-25.7576244 8.04432608 -24.35896889 4.49171371 -20.9375 0.5 C-14.2179655 -4.37166251 -6.8741019 -4.95319518 0 0 Z " fill="#000000" transform="translate(425.9375,403.5)"/>
<path d="M0 0 C2.13067908 1.51345855 4.03772206 3.13692728 5.96875 4.8984375 C6.74734375 5.59710938 7.5259375 6.29578125 8.328125 7.015625 C13.47717092 11.87861282 18.63643944 16.77385891 19.1171875 24.1875 C18.7888744 29.35411142 17.39021889 32.90672379 13.96875 36.8984375 C9.84110065 40.31848982 5.22543907 41.1293056 -0.03125 40.8984375 C-9.20266251 38.04176803 -18.06782024 28.98145002 -22.84375 20.7109375 C-24.7333404 14.6443578 -24.16122691 10.29398855 -21.46875 4.5859375 C-15.60351999 -1.88085456 -8.01265797 -4.34532605 0 0 Z " fill="#000000" transform="translate(93.03125,71.1015625)"/>
<path d="M0 0 C4.27392351 3.47815114 6.57946845 6.69319535 7.22021484 12.3215332 C7.26958653 15.24216029 7.30099228 18.16095638 7.3046875 21.08203125 C7.32917969 22.08943359 7.35367187 23.09683594 7.37890625 24.13476562 C7.4050348 30.81932066 6.46890394 35.07001386 2.9296875 40.76953125 C-1.40103113 44.83778208 -5.85185983 45.12173805 -11.56640625 45.046875 C-16.43824286 44.50724879 -19.01847972 41.92153859 -22.203125 38.43359375 C-25.40171601 33.48537195 -24.64571318 27.43714886 -24.5703125 21.76953125 C-24.58578125 20.60679687 -24.60125 19.4440625 -24.6171875 18.24609375 C-24.58775669 11.81546239 -24.47872557 7.60744045 -20.0703125 2.76953125 C-14.34079775 -2.5302699 -7.04481515 -4.18701278 0 0 Z " fill="#000000" transform="translate(345.0703125,435.23046875)"/>
<path d="M0 0 C3.87664519 3.50744089 6.29656343 5.95909236 7.00927734 11.20166016 C7.16370185 14.60156455 7.17027249 17.97201779 7.125 21.375 C7.14046875 22.53773437 7.1559375 23.70046875 7.171875 24.8984375 C7.13398598 33.17718936 6.09455898 36.7071805 0.4375 42.6875 C-3.45460708 45.02276425 -6.86173643 45.56111396 -11.375 45.375 C-17.26280365 43.70678897 -19.94739866 41.2139666 -23.375 36.375 C-24.92567464 31.72297609 -24.64201158 27.06082557 -24.6875 22.1875 C-24.71650391 21.17107422 -24.74550781 20.15464844 -24.77539062 19.10742188 C-24.83193318 12.37015887 -23.95491428 8.11612179 -20.375 2.375 C-14.82491896 -2.83871249 -6.67275602 -3.21280846 0 0 Z " fill="#000000" transform="translate(184.375,33.625)"/>
<path d="M0 0 C1.17175781 -0.02449219 2.34351563 -0.04898437 3.55078125 -0.07421875 C10.02787438 -0.09627469 14.26180202 -0.09653103 19.125 4.375 C23.08701333 8.75406737 23.7069504 12.27164634 23.44140625 17.9765625 C22.77322533 23.04153882 21.13727549 25.59470431 17.125 28.6875 C11.51114788 31.84529182 6.65851088 31.59235839 0.375 31.625 C-1.09066406 31.6559375 -1.09066406 31.6559375 -2.5859375 31.6875 C-9.61860535 31.72541196 -14.28578025 30.80014848 -20.1875 26.8125 C-23.58998873 21.89779405 -24.17079356 16.37982302 -23.3125 10.5625 C-18.45684033 -0.20439754 -10.41278139 0.01138009 0 0 Z " fill="#000000" transform="translate(456.875,320.625)"/>
<path d="M0 0 C0.95455078 -0.00708984 1.90910156 -0.01417969 2.89257812 -0.02148438 C10.22486035 0.0442987 15.2955156 0.96781893 20.8125 6.125 C24.12485627 11.28837889 24.32484786 15.15214762 23.3125 21.125 C21.51176034 25.46314553 19.12194849 28.08907864 15.12646484 30.55541992 C10.57056925 32.39129442 5.40570273 31.76379044 0.5625 31.75 C-0.5615625 31.76611328 -1.685625 31.78222656 -2.84375 31.79882812 C-13.22778202 31.80496526 -13.22778202 31.80496526 -18.0625 28.4375 C-22.7305749 23.26476835 -23.43041117 20.04109473 -23.33203125 13.19921875 C-22.94388989 9.22217609 -21.84633547 7.29093136 -19.0625 4.4375 C-12.96553112 0.22201398 -7.2408905 -0.15218143 0 0 Z " fill="#000000" transform="translate(55.0625,159.5625)"/>
</svg>
