<svg width="79" height="79" viewBox="0 0 79 79" fill="none" xmlns="http://www.w3.org/2000/svg">
<ellipse cx="39.8384" cy="39.3001" rx="38.9864" ry="39.1876" fill="black"/>
<g clip-path="url(#clip0_519_1003)">
<path d="M56.9687 53.816L22.7079 53.816" stroke="#F1EFE5" stroke-width="1.5" stroke-linecap="round"/>
<path d="M22.7079 35.1581L36.6279 24.1317C38.5048 22.6449 41.1718 22.6449 43.0487 24.1317L56.9687 35.1581" stroke="#F1EFE5" stroke-width="1.5" stroke-linecap="round"/>
<path d="M45.834 25.8291V22.4367C45.834 21.9683 46.2175 21.5886 46.6905 21.5886H50.9731C51.4461 21.5886 51.8296 21.9683 51.8296 22.4367V30.9176" stroke="#F1EFE5" stroke-width="1.5" stroke-linecap="round"/>
<path d="M26.134 53.816V32.6138" stroke="#F1EFE5" stroke-width="1.5" stroke-linecap="round"/>
<path d="M53.5426 53.816V32.6138" stroke="#F1EFE5" stroke-width="1.5" stroke-linecap="round"/>
<path d="M44.9774 53.816V45.3351C44.9774 42.9364 44.9774 41.737 44.2248 40.9918C43.4722 40.2466 42.2609 40.2466 39.8383 40.2466C37.4157 40.2466 36.2044 40.2466 35.4518 40.9918C34.6992 41.737 34.6992 42.9364 34.6992 45.3351V53.816" stroke="#F1EFE5" stroke-width="1.5"/>
<path d="M43.2644 32.6138C43.2644 34.4873 41.7305 36.0061 39.8383 36.0061C37.9461 36.0061 36.4122 34.4873 36.4122 32.6138C36.4122 30.7402 37.9461 29.2214 39.8383 29.2214C41.7305 29.2214 43.2644 30.7402 43.2644 32.6138Z" stroke="#F1EFE5" stroke-width="1.5"/>
<path d="M53.5426 40.5858H58.3948C59.4993 40.5858 60.3948 41.4812 60.3948 42.5858V44.6921C60.3948 45.7966 59.4993 46.6921 58.3948 46.6921H53.5426" stroke="#F1EFE5" stroke-width="2"/>
</g>
<defs>
<clipPath id="clip0_519_1003">
<rect x="19.2819" y="16.5001" width="41.1129" height="40.7083" rx="3" fill="white"/>
</clipPath>
</defs>
</svg>
