<svg width="25" height="25" viewBox="0 0 25 25" fill="none" xmlns="http://www.w3.org/2000/svg">
<path d="M12.5002 2.08325C6.76058 2.08325 2.0835 6.76033 2.0835 12.4999C2.0835 18.2395 6.76058 22.9166 12.5002 22.9166C18.2397 22.9166 22.9168 18.2395 22.9168 12.4999C22.9168 6.76033 18.2397 2.08325 12.5002 2.08325ZM17.4793 10.1041L11.5731 16.0103C11.4272 16.1562 11.2293 16.2395 11.021 16.2395C10.8127 16.2395 10.6147 16.1562 10.4689 16.0103L7.521 13.0624C7.21891 12.7603 7.21891 12.2603 7.521 11.9583C7.82308 11.6562 8.32308 11.6562 8.62516 11.9583L11.021 14.3541L16.3752 8.99992C16.6772 8.69784 17.1772 8.69784 17.4793 8.99992C17.7814 9.302 17.7814 9.79158 17.4793 10.1041Z" fill="#F1EFE5"/>
</svg>
