<svg width="284" height="284" viewBox="0 0 284 284" fill="none" xmlns="http://www.w3.org/2000/svg">
<circle cx="142" cy="142" r="94.5" stroke="#5B5B5B"/>
<path d="M142 98.6667C118.124 98.6667 98.667 118.123 98.667 142C98.667 165.877 118.124 185.333 142 185.333C165.877 185.333 185.334 165.877 185.334 142C185.334 118.123 165.877 98.6667 142 98.6667ZM162.714 132.033L138.144 156.603C137.537 157.21 136.714 157.557 135.847 157.557C134.98 157.557 134.157 157.21 133.55 156.603L121.287 144.34C120.03 143.083 120.03 141.003 121.287 139.747C122.544 138.49 124.624 138.49 125.88 139.747L135.847 149.713L158.12 127.44C159.377 126.183 161.457 126.183 162.714 127.44C163.97 128.697 163.97 130.733 162.714 132.033Z" fill="#F1EFE5"/>
<circle cx="142" cy="142" r="117.5" stroke="#5B5B5B"/>
<circle cx="142" cy="142" r="141.5" stroke="#5B5B5B"/>
</svg>
