<svg width="284" height="284" viewBox="0 0 284 284" fill="none" xmlns="http://www.w3.org/2000/svg">
<circle cx="142" cy="142" r="94.5" stroke="#5B5B5B"/>
<path d="M142 98.6667C118.124 98.6667 98.667 118.123 98.667 142C98.667 165.877 118.124 185.333 142 185.333C165.877 185.333 185.334 165.877 185.334 142C185.334 118.123 165.877 98.6667 142 98.6667ZM156.56 151.967C157.817 153.223 157.817 155.303 156.56 156.56C155.91 157.21 155.087 157.513 154.264 157.513C153.44 157.513 152.617 157.21 151.967 156.56L142 146.593L132.034 156.56C131.384 157.21 130.56 157.513 129.737 157.513C128.914 157.513 128.09 157.21 127.44 156.56C126.184 155.303 126.184 153.223 127.44 151.967L137.407 142L127.44 132.033C126.184 130.777 126.184 128.697 127.44 127.44C128.697 126.183 130.777 126.183 132.034 127.44L142 137.407L151.967 127.44C153.224 126.183 155.304 126.183 156.56 127.44C157.817 128.697 157.817 130.777 156.56 132.033L146.594 142L156.56 151.967Z" fill="#F1EFE5"/>
<circle cx="142" cy="142" r="117.5" stroke="#5B5B5B"/>
<circle cx="142" cy="142" r="141.5" stroke="#5B5B5B"/>
</svg>
