<svg width="43" height="28" viewBox="0 0 43 28" fill="none" xmlns="http://www.w3.org/2000/svg">
<path d="M41.3399 6.89286C41.4666 4.23055 32.5332 1.60842 21.3865 1.03616C10.2398 0.463905 1.10085 2.15823 0.974088 4.82053M41.3399 6.89286C41.2827 8.0931 39.3939 9.0966 36.3152 9.78438M41.3399 6.89286L41.3399 23.7325C41.3399 23.7325 38.9475 25.7078 36.3152 26.1566M0.974088 4.82053C0.847325 7.48284 9.78075 10.105 20.9275 10.6772C27.0489 10.9915 32.5649 10.6222 36.3152 9.78438M0.974088 4.82053C0.974088 4.82053 0.974088 17.0173 0.974088 20.8615C0.974088 24.7057 25.98 27.9185 36.3152 26.1566M36.3152 26.1566C36.3152 18.308 36.3152 9.78438 36.3152 9.78438" stroke="#3D3D3E"/>
<path d="M13.2485 15.7325C13.2485 17.6655 11.6815 19.2325 9.74854 19.2325C7.81554 19.2325 6.24854 17.6655 6.24854 15.7325C6.24854 13.7995 7.81554 12.2325 9.74854 12.2325C11.6815 12.2325 13.2485 13.7995 13.2485 15.7325Z" fill="#D9D9D9" stroke="#3D3D3E"/>
<circle cx="24.7485" cy="17.7325" r="3.5" fill="#D9D9D9" stroke="#3D3D3E"/>
<path d="M7.982 16.2111C9.87132 16.2111 7.41866 15.2795 7.78687 16.0159" stroke="#3D3D3E" stroke-linecap="round"/>
<path d="M11.3339 16.1407C11.7474 16.0891 10.7485 15.2487 10.7485 16.1407" stroke="#3D3D3E" stroke-linecap="round"/>
<path d="M24.0591 17.9277C23.5024 17.9277 23.864 18.2893 23.864 17.7325" stroke="#3D3D3E" stroke-linecap="round"/>
<path d="M26.0591 17.9277C25.5024 17.9277 25.864 18.2893 25.864 17.7325" stroke="#3D3D3E" stroke-linecap="round"/>
</svg>
