<svg width="39" height="36" viewBox="0 0 39 36" fill="none" xmlns="http://www.w3.org/2000/svg">
<path d="M38.9339 16.404C38.9339 16.362 38.9339 16.362 38.8929 16.32L38.8519 16.278L38.8109 16.236L20.9349 0.486008C20.8939 0.486008 20.8939 0.444008 20.8529 0.444008L20.7709 0.402008H20.6889C20.6479 0.402008 20.6479 0.402008 20.6069 0.402008H20.5249L20.4429 0.444008L0.229902 12.372C0.188902 12.372 0.188902 12.414 0.188902 12.414L0.147902 12.456C0.147902 12.498 0.106902 12.498 0.106902 12.54C0.106902 12.54 0.0659023 12.582 0.0659023 12.624C0.0659023 12.666 0.0249023 12.666 0.0249023 12.708C0.0249023 12.75 0.0249023 12.75 0.0249023 12.792V12.834C0.0249023 12.876 0.0249023 12.918 0.0659023 12.918C0.106902 12.96 0.106902 13.002 0.147902 13.002L3.0179 15.48L3.3459 19.554C3.3459 19.68 3.4279 19.806 3.5509 19.89L10.1109 24.216C10.1929 24.258 10.2339 24.3 10.3159 24.3C10.3569 24.3 10.3979 24.3 10.3979 24.3L12.6119 23.754L12.7349 23.88V29.466L9.2089 31.44C9.0859 31.524 9.0039 31.65 9.0039 31.818C9.0039 31.986 9.0859 32.112 9.2089 32.196L14.8259 35.556C14.8669 35.598 14.9489 35.64 15.0309 35.682C15.1129 35.682 15.1539 35.682 15.2359 35.64L20.8119 32.28C20.9349 32.196 21.0169 32.07 21.0169 31.902C21.0169 31.734 20.9349 31.608 20.8119 31.524L18.2289 30.054C18.0239 29.928 17.7779 30.012 17.6549 30.222C17.5319 30.432 17.6139 30.684 17.8189 30.81L19.7869 31.944L14.9899 34.716L10.1929 31.818L12.6939 30.432V31.818C12.6939 31.986 12.7759 32.112 12.8989 32.196L14.8259 33.372H14.8669H14.9079C14.9489 33.372 14.9899 33.414 15.0309 33.414C15.0719 33.414 15.1129 33.414 15.1539 33.372H15.1949H15.2359L17.0399 32.196C17.1629 32.112 17.2449 31.986 17.2449 31.86V28.374C17.2449 28.122 17.0809 27.954 16.8349 27.954C16.5889 27.954 16.4249 28.122 16.4249 28.374V31.65L15.4409 32.28L15.3999 26.274L18.5979 29.046C18.6389 29.046 18.6389 29.088 18.6799 29.088H18.7209C18.7619 29.088 18.8029 29.088 18.8439 29.088C18.8849 29.088 18.9669 29.088 19.0079 29.046H19.0899L24.5019 25.728L27.9869 27.828C28.0689 27.87 28.1099 27.87 28.1919 27.87C28.2739 27.87 28.3149 27.87 28.3969 27.828L34.0139 24.51C34.2189 24.384 34.2599 24.132 34.1779 23.922C34.1369 23.838 34.0959 23.796 34.0139 23.754L31.4309 22.284C31.2259 22.158 30.9799 22.242 30.8569 22.452C30.7339 22.662 30.8159 22.914 31.0209 23.04L32.9479 24.174L28.1919 26.988L25.2809 25.266L26.3469 24.594L28.0279 25.602H28.1099C28.1509 25.602 28.1919 25.644 28.2329 25.644C28.2739 25.644 28.3149 25.644 28.3559 25.602H28.3969H28.4379L30.2419 24.426C30.3649 24.342 30.4469 24.216 30.4469 24.048V22.032L38.7699 16.908L38.8109 16.866C38.8109 16.866 38.8519 16.866 38.8519 16.824C38.8519 16.782 38.8929 16.782 38.8929 16.74C38.8929 16.698 38.9339 16.698 38.9339 16.656C38.9339 16.614 38.9339 16.614 38.9339 16.572C38.9339 16.53 38.9339 16.53 38.9339 16.488C38.9749 16.446 38.9749 16.404 38.9339 16.404ZM34.3009 13.296L31.1029 15.27L28.1509 12.708L31.3899 10.734L34.3009 13.296ZM20.5249 11.952L23.7639 10.02L26.7159 12.582L23.4769 14.556L20.5249 11.952ZM22.7389 14.976L19.4999 16.95L16.5479 14.346L19.7869 12.414L22.7389 14.976ZM19.8689 11.364L16.9169 8.80201L20.1969 6.87001L23.1489 9.43201L19.8689 11.364ZM19.1309 11.826L15.8919 13.8L12.8989 11.196L16.1789 9.26401L19.1309 11.826ZM15.1129 14.22L11.8739 16.194L8.8399 13.59L12.1199 11.658L15.1129 14.22ZM11.0949 16.614L7.8559 18.588L4.8219 15.984L8.1019 14.052L11.0949 16.614ZM11.7919 17.202L14.7849 19.806L11.5459 21.78L8.5119 19.176L11.7919 17.202ZM12.5299 16.74L15.7689 14.766L18.7619 17.37L15.5229 19.344L12.5299 16.74ZM19.4179 17.958L22.4109 20.562L19.2129 22.536L16.2199 19.932L19.4179 17.958ZM20.1969 17.496L23.4359 15.522L26.3879 18.126L23.1899 20.1L20.1969 17.496ZM24.1739 15.102L27.4129 13.128L30.3649 15.69L27.1669 17.664L24.1739 15.102ZM30.6929 10.146L27.4949 12.12L24.5429 9.55801L27.7819 7.58401L30.6929 10.146ZM27.1259 6.99601L23.8869 8.92801L20.9349 6.36601L24.2149 4.43401L27.1259 6.99601ZM20.6069 1.32601L23.5179 3.88801L20.2379 5.82001L17.2859 3.25801L20.6069 1.32601ZM16.5479 3.72001L19.4999 6.28201L16.2199 8.21401L13.2679 5.65201L16.5479 3.72001ZM12.5299 6.07201L15.4819 8.67601L12.2019 10.608L9.2499 8.00401L12.5299 6.07201ZM8.4709 8.46601L11.4639 11.07L8.1839 13.002L5.1499 10.398L8.4709 8.46601ZM1.1319 12.792L4.4119 10.86L7.4049 13.464L4.1249 15.396L3.6329 14.976L1.1319 12.792ZM10.3569 23.46L4.1659 19.344L3.9199 16.278L11.8329 23.082L10.3569 23.46ZM13.5549 31.566V24.552L14.6209 25.476L14.6619 32.196L13.5549 31.566ZM15.2359 24.93L12.2019 22.326L15.4409 20.352L18.4749 22.956L15.2359 24.93ZM18.9669 28.122L15.9329 25.518L19.1309 23.544L22.1649 26.148L18.9669 28.122ZM22.9029 25.686L19.9099 23.082L23.1079 21.108L26.1009 23.712L22.9029 25.686ZM27.8639 24.426L27.2079 24.006L27.8639 23.586V24.426ZM29.6679 23.754L28.6429 24.384V23.082L29.6679 22.452V23.754ZM26.8389 23.25L23.8459 20.646L27.0439 18.672L29.9959 21.276L26.8389 23.25ZM30.7749 20.856L27.8229 18.252L31.0209 16.278L33.9729 18.84L30.7749 20.856ZM34.7109 18.42L31.7589 15.858L34.9569 13.884L37.8679 16.446L34.7109 18.42Z" fill="#3D3D3E"/>
</svg>
