<svg width="43" height="37" viewBox="0 0 43 37" fill="none" xmlns="http://www.w3.org/2000/svg">
<path d="M41.5725 11.2547C41.6992 8.59241 32.7658 5.97028 21.6191 5.39802C10.4724 4.82576 1.33345 6.52008 1.20669 9.18239M41.5725 11.2547C41.5153 12.455 39.6265 13.4585 36.5478 14.1462M41.5725 11.2547L41.5725 32.7609C41.5725 32.7609 39.1801 35.3648 36.5478 35.8135M1.20669 9.18239C1.07992 11.8447 10.0133 14.4668 21.1601 15.0391C27.2815 15.3534 32.7975 14.984 36.5478 14.1462M1.20669 9.18239C1.20669 9.18239 1.20669 26.6743 1.20669 30.5185C1.20669 34.3626 26.2126 37.5755 36.5478 35.8135M36.5478 35.8135C36.5478 27.9649 36.5478 14.1462 36.5478 14.1462M12.4838 9.18239L27.1381 10.3363C27.1381 10.3363 25.2871 0.885906 19.8881 1.04609C14.4891 1.20628 12.4838 9.18239 12.4838 9.18239Z" stroke="#3D3D3E"/>
</svg>
